<svg width="154" height="36" viewBox="0 0 154 36" fill="none" xmlns="http://www.w3.org/2000/svg">
<g clip-path="url(#clip0_4700_11424)">
<path fill-rule="evenodd" clip-rule="evenodd" d="M6.44371 3.65576H105.754C105.761 3.70533 105.774 3.7487 105.787 3.79827C107.511 10.0936 112.585 30.9501 116.4 34.2093C117.199 34.8909 118.065 35.4857 118.969 36H6.44371C2.92359 36 0 33.2551 0 29.9091V9.75284C0 6.40068 2.90393 3.65576 6.44371 3.65576ZM87.6751 26.3959C86.6197 27.4616 85.3349 28.3725 84.2926 28.6079C83.7223 28.738 83.0668 28.5831 82.5227 28.2547C82.1687 28.0441 81.8606 27.7528 81.6443 27.412C81.4214 27.0589 81.2969 26.6561 81.3362 26.2286C81.3821 25.7205 81.6443 25.1876 82.2277 24.6857C82.9947 24.0227 84.286 23.2358 84.876 22.5418C85.9904 21.222 85.6102 19.5614 85.3152 18.2726C85.0595 17.1511 84.8563 16.2651 85.6036 15.8251C85.9117 15.6454 86.6721 15.3852 87.4063 15.3108C87.9504 15.2551 88.4944 15.2923 88.9009 15.5153C89.7661 15.9986 90.3102 17.2874 90.8674 18.6258C91.536 20.212 92.2309 21.8726 93.3518 21.9346C94.0925 21.9718 94.6825 21.0795 95.3905 19.9952C96.5835 18.1797 98.0912 15.8871 101.526 15.8685C105.387 15.8437 108.101 18.7435 107.76 22.3002C107.557 24.3821 106.41 25.8382 104.935 26.7181C101.723 28.6265 98.9237 27.8706 96.5507 25.3053C96.3868 25.4478 96.223 25.5842 96.0591 25.7143C95.2135 26.3649 94.3285 26.7676 93.4436 26.8358C92.5324 26.904 91.6475 26.6251 90.8215 25.8878C90.3233 25.4478 89.8579 24.8468 89.4187 24.0537C89.0582 24.8034 88.4158 25.6523 87.6685 26.4083L87.6751 26.3959ZM11.0323 14.3009C11.1569 14.3009 11.288 14.2947 11.4518 14.2823C13.2283 14.1645 13.7789 15.0258 13.8576 16.1473C13.9035 16.7917 13.7789 17.5105 13.6675 18.1487L13.6413 18.3098C13.4905 19.1897 13.2348 20.2616 12.9005 21.2902C12.6187 22.17 12.2778 23.0251 11.9041 23.7067C11.3535 24.7105 9.97037 26.9163 8.42336 28.422C7.74163 29.085 7.014 29.6241 6.30605 29.8719C5.51943 30.1446 4.75903 30.0888 4.08385 29.525C3.72988 29.2337 3.40867 28.8 3.1268 28.2052C2.84493 27.6103 2.77938 27.2014 2.92359 26.8296C3.06781 26.464 3.38901 26.1976 3.90687 25.8568C5.24412 24.9645 6.32571 23.8244 7.132 22.5232C7.97106 21.1663 8.51513 19.6358 8.75112 18.031C8.78389 17.7955 8.81011 17.5043 8.84289 17.2007C8.90189 16.5625 8.96744 15.8623 9.09854 15.4472C9.43941 14.3566 10.1015 14.3318 11.0258 14.3009H11.0323ZM34.6308 15.9738C34.4604 15.5401 34.408 15.1621 34.5849 14.8895V14.8771C34.6767 14.6231 34.8603 14.431 35.0897 14.2823C35.2929 14.146 35.5158 14.0468 35.719 13.9539L35.7518 13.9415C36.8202 13.4644 37.5282 13.5573 38.0723 13.9539C38.577 14.3256 38.872 14.9391 39.1866 15.5959L39.3309 15.8933C40.0519 17.3618 40.3797 18.663 40.4125 19.8031C40.4518 21.1105 40.0913 22.1886 39.4882 23.0375C39.2457 23.3783 38.9638 23.6819 38.6557 23.9422C38.3345 24.2148 37.9805 24.4503 37.6003 24.6361C37.2332 24.822 36.8465 24.9707 36.4466 25.0761C36.0467 25.1814 35.6338 25.2496 35.2142 25.2744C34.2572 25.3301 33.287 25.1628 32.4414 24.7725C31.6417 24.4007 30.9468 23.8306 30.4552 23.0561C30.0881 22.4799 29.7145 21.6991 29.3539 20.8007C28.9541 19.8217 28.5673 18.6816 28.2002 17.4981C27.7938 16.1659 27.4202 14.7904 27.1252 13.5201C26.8171 12.2189 26.5942 11.0355 26.4828 10.1432C26.4369 9.79001 26.4369 9.51118 26.4828 9.28812C26.5352 9.01549 26.6598 8.81101 26.8564 8.6623C27.04 8.51979 27.2825 8.42685 27.5906 8.35869C27.8594 8.29673 28.1871 8.24716 28.5804 8.19759C28.9934 8.14802 29.3081 8.12323 29.5506 8.14182C29.8652 8.16661 30.0881 8.24716 30.2585 8.40206C30.4159 8.55077 30.5208 8.75525 30.606 9.03408C30.6781 9.26953 30.7371 9.55456 30.8026 9.91394C30.8878 10.3415 31.2025 11.6984 31.6155 13.3033C31.8973 14.3938 32.2185 15.5959 32.5463 16.6988C32.7954 17.5477 33.051 18.3408 33.2805 18.9666C33.4771 19.4933 33.6541 19.9022 33.8049 20.1129C33.8508 20.1749 33.8966 20.2368 33.9556 20.2988C34.0081 20.3608 34.0671 20.4103 34.1261 20.4599C34.231 20.5404 34.349 20.6148 34.4735 20.6644C34.5915 20.7139 34.716 20.7449 34.8406 20.7573C34.9717 20.7697 35.1028 20.7635 35.2273 20.7325C35.3519 20.7015 35.4699 20.652 35.5944 20.5838C35.6534 20.5466 35.7059 20.5095 35.7649 20.4599C35.8239 20.4103 35.8763 20.3608 35.9222 20.305C36.2172 19.9704 36.2172 19.5119 36.073 19.01C35.9091 18.4337 35.5682 17.8017 35.2405 17.2069C34.9979 16.767 34.7685 16.3394 34.6243 15.9738H34.6308ZM19.1869 25.2558C19.4426 25.1071 19.6654 24.9274 19.8359 24.7043L19.6458 24.5928C19.2656 24.3697 18.8591 24.1342 18.5707 23.9112C18.1643 23.6695 17.7776 23.4031 17.4236 23.1181C17.0696 22.8268 16.7418 22.517 16.4534 22.1886C16.0732 21.7549 15.752 21.2902 15.516 20.8069C15.28 20.336 15.1227 19.8403 15.0506 19.3384C14.9719 18.8179 14.9916 18.285 15.1227 17.746C15.2407 17.2379 15.4636 16.736 15.7848 16.2403C15.9683 15.9552 16.1978 15.6764 16.46 15.3914C16.7156 15.125 17.004 14.8585 17.3252 14.6045C17.9611 14.1026 18.6559 13.7246 19.3573 13.4706C20.0784 13.2165 20.8191 13.0926 21.5336 13.1112C21.868 13.1174 22.1957 13.1608 22.5104 13.2289C22.825 13.2971 23.1331 13.4024 23.4215 13.5325C23.7165 13.6688 24.0049 13.8299 24.2803 14.0344C24.5425 14.2265 24.785 14.4558 25.0144 14.7098C25.5388 15.3046 25.9518 16.0606 26.2206 16.99C26.4631 17.8389 26.5877 18.8365 26.5483 19.989C26.5418 20.274 26.5156 20.5528 26.4893 20.8255C26.4566 21.1105 26.4107 21.3955 26.3517 21.662C26.1026 22.8392 25.6503 23.9298 25.0734 24.9026C24.4179 26.0117 23.5985 26.9721 22.7398 27.7528C21.9597 28.4592 21.1535 29.0231 20.4062 29.4072C19.5933 29.8286 18.8329 30.0454 18.2495 30.033H18.1053L17.9676 30.0021C17.7579 29.9649 17.5612 29.8843 17.3777 29.7728C17.1941 29.6613 17.0237 29.5126 16.8795 29.3453C16.7156 29.1656 16.5845 28.9549 16.4796 28.7442C16.3682 28.5212 16.2895 28.2857 16.2436 28.0626C15.9487 26.6127 17.0106 26.1852 18.125 25.7391C18.4921 25.5904 18.8657 25.4416 19.1869 25.2496V25.2558ZM22.1367 20.9742C22.1367 20.9742 22.1957 20.9246 22.2416 20.8998C22.4973 20.0014 22.3924 18.7435 21.8614 17.9566C20.9961 16.6492 18.8329 18.0186 19.8096 19.3446C20.144 19.7969 21.5599 20.8565 22.1367 20.9742ZM35.4568 28.3477C35.601 27.3315 36.2893 26.3773 37.5479 26.0551C38.9834 25.6895 40.0454 26.148 40.6681 26.9349C40.9172 27.2447 41.0942 27.6041 41.1991 27.9883C41.304 28.3663 41.3367 28.7628 41.2909 29.147C41.1729 30.1632 40.5305 31.0988 39.3178 31.39C37.8035 31.7556 36.7088 31.3219 36.0664 30.5535C35.8042 30.2437 35.6272 29.8843 35.5223 29.5064C35.424 29.1284 35.3978 28.7318 35.4502 28.3415L35.4568 28.3477ZM42.9493 26.5136C42.4708 26.2596 42.0054 25.863 41.6907 25.4107C41.4023 24.9955 41.245 24.5308 41.3105 24.0661C41.4744 22.9384 42.3987 21.5071 43.7031 20.4289C44.8175 19.5119 46.2269 18.8365 47.6952 18.7993C48.8752 18.7745 50.0026 19.3198 51.3727 19.989C53.6473 21.0981 56.6233 22.5542 61.4938 22.0089C63.3292 21.8045 64.9943 21.2406 66.4495 20.367C67.9375 19.4747 69.2027 18.2602 70.2056 16.7793C70.3367 16.5873 70.4875 16.3332 70.6513 16.0606C70.9857 15.5153 71.3527 14.9081 71.6543 14.5859C72.4474 13.737 73.0571 13.9848 73.9158 14.3318C74.0404 14.3814 74.178 14.4372 74.3026 14.4867C75.9938 15.1126 76.0921 16.1349 75.6529 17.1945C75.4104 17.7769 74.9909 18.3594 74.6172 18.8799L74.5189 19.0162C72.6638 21.6062 70.6776 23.4836 68.3112 24.7291C65.9447 25.9745 63.2047 26.5818 59.8288 26.6437C55.7318 26.7181 52.5919 25.4355 50.4812 24.5742C49.452 24.159 48.6851 23.843 48.2524 23.8616C47.7542 23.8802 47.1053 24.4812 46.4366 25.1071C45.3485 26.1232 44.2013 27.189 42.9362 26.5074L42.9493 26.5136ZM81.0085 15.9738C81.133 15.9986 81.2641 16.0234 81.4214 16.0482C83.1782 16.3394 83.4929 17.2998 83.2831 18.4089C83.1651 19.0472 82.857 19.7163 82.5883 20.3112L82.5162 20.4599C82.1491 21.2716 81.6247 22.2568 81.0347 23.1862C80.5365 23.9793 79.9924 24.7291 79.4549 25.3053C78.6683 26.1542 76.7673 27.9821 74.8794 29.0912C74.0469 29.5807 73.2078 29.9339 72.454 30.0145C71.6215 30.1012 70.9004 29.8781 70.3826 29.1718C70.1138 28.8062 69.9106 28.3167 69.7926 27.6723C69.6746 27.0279 69.7074 26.6251 69.9499 26.2905C70.1794 25.9683 70.5661 25.7824 71.1561 25.5718C72.6769 25.0141 74.0141 24.1528 75.1351 23.0685C76.2953 21.9408 77.2196 20.5776 77.8489 19.0719C77.9407 18.8613 78.039 18.5762 78.1504 18.285C78.3733 17.684 78.6158 17.0148 78.8453 16.6492C79.4549 15.6702 80.1039 15.7941 81.0085 15.9738ZM102.509 23.2296C102.981 22.9198 103.244 22.3683 103.25 21.8293C103.257 21.2158 102.935 20.6024 102.227 20.3112C101.611 20.0633 101.074 20.1191 100.608 20.3855C100.097 20.6768 99.6513 21.2096 99.258 21.885C99.1662 22.0399 99.0745 22.1948 98.9761 22.3497C99.9332 23.0251 101.336 24.0103 102.516 23.2358L102.509 23.2296Z" fill="white"/>
<path fill-rule="evenodd" clip-rule="evenodd" d="M127.408 28.2053C126.038 28.0938 124.727 27.4742 123.842 26.4332C123.626 26.1792 123.455 25.9127 123.324 25.6339C121.345 19.7103 119.555 13.1547 117.825 7.10101C117.713 6.72304 117.425 6.43801 117.071 6.28931C116.979 5.50239 116.979 4.75264 117.084 3.94714C117.89 3.6745 118.48 2.94955 118.506 2.08827C118.539 0.966758 117.602 0.0249334 116.415 -0.00604763C115.229 -0.0370287 114.232 0.84903 114.2 1.97054C114.173 2.87519 114.776 3.65591 115.629 3.94714C115.681 4.79602 115.629 5.58294 115.465 6.41323L112.515 7.16917C112.489 6.6239 112.508 6.07863 112.58 5.50858C113.387 5.23595 113.977 4.51099 114.003 3.64972C114.036 2.5282 113.098 1.58638 111.912 1.5554C110.725 1.52442 109.729 2.41048 109.696 3.53199C109.67 4.43664 110.273 5.21736 111.125 5.50858C111.184 6.38225 111.119 7.18776 110.948 8.04283C110.745 8.37743 110.673 8.78018 110.791 9.17674C112.174 14.0222 116.258 30.089 119.234 32.5736C121.731 34.6618 124.989 35.6841 128.241 35.4921C130.332 35.3681 132.423 34.7423 134.298 33.5712C140.027 30.0022 141.607 22.7155 137.824 17.3062C136.133 14.8835 133.655 13.2477 130.922 12.4979C128.503 11.8349 125.894 11.9155 123.423 12.6652C122.531 12.9378 122.675 13.2353 123.042 14.4125L124.458 18.9977L124.806 20.1255C124.858 20.0883 124.911 20.0573 124.97 20.0263C127.12 18.7561 129.958 19.3323 131.361 21.3399C132.783 23.3785 132.187 26.1234 130.03 27.468C129.224 27.9699 128.313 28.2053 127.415 28.1991L127.408 28.2053ZM143.862 26.5261H146.241L148.037 26.5385C148.588 26.5385 149.04 26.9661 149.034 27.4928C149.034 28.0132 148.575 28.4408 148.024 28.4346H146.818L143.265 28.416H142.059C141.515 28.416 141.056 27.9823 141.063 27.4618C141.063 26.9413 141.515 26.5137 142.072 26.5199H143.868L143.862 26.5261ZM145.291 20.5344L151.203 20.553H152.999C153.55 20.5592 154.002 20.9867 153.996 21.5134C153.996 22.0339 153.537 22.4614 152.986 22.4552H151.78L144.687 22.4242H143.481C142.937 22.4181 142.478 21.9905 142.485 21.47C142.485 20.9495 142.937 20.522 143.494 20.5282H145.291V20.5344ZM143.58 15.0322L146.398 15.0446H148.195C148.745 15.0508 149.197 15.4783 149.191 16.005C149.191 16.5255 148.732 16.953 148.181 16.9468H146.975L142.977 16.9282H141.77C141.226 16.922 140.768 16.4945 140.774 15.974C140.774 15.4535 141.226 15.026 141.784 15.0322H143.58Z" fill="#FF5527"/>
</g>
<defs>
<clipPath id="clip0_4700_11424">
<rect width="154" height="36" fill="white"/>
</clipPath>
</defs>
</svg>
