<svg width="32" height="32" viewBox="0 0 32 32" fill="none" xmlns="http://www.w3.org/2000/svg">
<g clip-path="url(#clip0_4695_13421)">
<path d="M16.4883 19.9922C16.4883 20.9817 16.1947 21.9489 15.6447 22.7714C15.0947 23.594 14.313 24.2348 13.3986 24.6129C12.4842 24.9909 11.4782 25.0891 10.5079 24.8951C9.53765 24.7011 8.64676 24.2236 7.94803 23.523C7.2493 22.8224 6.77415 21.9302 6.58274 20.9595C6.39132 19.9887 6.49224 18.9829 6.87272 18.0695C7.25321 17.1561 7.89614 16.3762 8.72014 15.8284C9.54414 15.2806 10.5121 14.9896 11.5016 14.9922" stroke="#164685" stroke-width="2" stroke-linecap="round" stroke-linejoin="round"/>
<path d="M21.1436 17.3245C21.3743 18.1946 21.4909 19.091 21.4902 19.9912C21.482 22.0953 20.8076 24.1428 19.5637 25.84C18.3198 27.5371 16.5704 28.7968 14.5664 29.4382C12.5624 30.0796 10.4067 30.0698 8.40854 29.4103C6.41039 28.7508 4.67245 27.4754 3.44399 25.7671C2.21552 24.0587 1.55965 22.0052 1.57044 19.9011C1.58124 17.7969 2.25815 15.7503 3.50408 14.0546C4.75001 12.359 6.50095 11.1015 8.50575 10.4625C10.5106 9.82355 12.6662 9.83592 14.6636 10.4979" stroke="#164685" stroke-width="2" stroke-linecap="round" stroke-linejoin="round"/>
<path d="M11.5039 19.9973L20.5972 10.8906" stroke="#164685" stroke-width="2" stroke-linecap="round" stroke-linejoin="round"/>
<path d="M1.50391 30.9846L4.94391 27.5312" stroke="#164685" stroke-width="2" stroke-linecap="round" stroke-linejoin="round"/>
<path d="M21.4908 30.9947L18.0508 27.5547" stroke="#164685" stroke-width="2" stroke-linecap="round" stroke-linejoin="round"/>
<path d="M26.2494 10.8855C26.0335 11.1094 25.7671 11.2783 25.4725 11.3781C25.1779 11.4778 24.8636 11.5055 24.5561 11.4589L20.5561 10.8855L19.9961 6.92552C19.9531 6.61922 19.9813 6.30713 20.0784 6.01346C20.1755 5.7198 20.339 5.45246 20.5561 5.23219L24.8361 0.992188L26.0494 5.44552L30.4894 6.64552L26.2494 10.8855Z" stroke="#164685" stroke-width="2" stroke-linecap="round" stroke-linejoin="round"/>
</g>
<defs>
<clipPath id="clip0_4695_13421">
<rect width="32" height="32" fill="white"/>
</clipPath>
</defs>
</svg>
